<?xml version="1.0" standalone="no"?>
<!DOCTYPE svg PUBLIC "-//W3C//DTD SVG 20010904//EN"
 "http://www.w3.org/TR/2001/REC-SVG-20010904/DTD/svg10.dtd">
<svg version="1.0" xmlns="http://www.w3.org/2000/svg"
 width="1500.000000pt" height="1500.000000pt" viewBox="0 0 1500.000000 1500.000000"
 preserveAspectRatio="xMidYMid meet">

<g transform="translate(0.000000,1500.000000) scale(0.100000,-0.100000)"
fill="#000000" stroke="none">
<path d="M1310 14160 c-11 -11 -20 -31 -20 -45 0 -30 32 -65 59 -65 11 0 55
14 98 32 89 37 168 41 242 14 153 -57 366 -268 576 -571 55 -80 241 -317 370
-473 l21 -24 39 107 c165 451 546 808 1002 940 l85 25 3657 0 c2261 0 3694 -4
3755 -10 159 -16 280 -85 456 -260 211 -210 351 -425 475 -728 130 -319 185
-663 185 -1163 0 -373 -47 -656 -176 -1052 -134 -411 -339 -789 -589 -1087
-278 -332 -474 -469 -803 -564 l-91 -26 -1215 0 -1216 0 0 -45 0 -45 1220 0
1220 0 213 -35 c331 -54 484 -99 722 -214 164 -79 292 -157 425 -257 376 -284
691 -673 934 -1154 248 -490 389 -978 463 -1595 22 -189 26 -857 5 -1055 -92
-889 -447 -1835 -922 -2460 -67 -87 -334 -352 -467 -462 -446 -370 -934 -642
-1458 -813 -252 -82 -762 -135 -1312 -135 -484 0 -933 43 -1358 130 -278 57
-541 214 -689 411 -25 33 -77 123 -117 202 -92 182 -138 255 -195 307 -75 69
-145 87 -219 56 -19 -8 -106 -84 -192 -168 -166 -161 -269 -242 -418 -327
-227 -130 -470 -185 -717 -162 -189 18 -292 53 -428 147 -74 50 -92 59 -141
62 -40 3 -67 -1 -93 -13 -38 -18 -136 -101 -136 -115 0 -10 -14 -5 335 -95
842 -215 1719 -375 2460 -450 813 -81 2089 -117 2680 -75 570 41 1084 134
1628 295 666 196 1235 542 1768 1075 343 343 589 677 793 1078 230 454 379
985 393 1402 18 547 -115 1224 -353 1797 -407 978 -1119 1756 -2124 2321 -255
143 -481 233 -720 286 -160 35 -277 46 -507 47 -161 1 -186 3 -133 10 222 31
299 44 418 75 634 162 1173 598 1519 1229 366 667 421 1497 147 2215 -49 127
-179 384 -252 495 -165 254 -443 533 -722 724 -183 126 -387 224 -542 261 -82
20 -127 20 -5050 20 -4955 0 -4968 0 -4988 -20z"/>
<path d="M8230 13391 c-13 -26 -3 -50 24 -56 11 -3 104 -6 206 -7 169 -3 189
-5 231 -26 146 -72 214 -249 148 -390 -18 -39 -1082 -1250 -4224 -4808 -2310
-2615 -4206 -4764 -4214 -4775 -13 -19 55 -19 5347 -19 4860 0 5362 1 5376 16
22 21 20 67 -2 87 -26 24 -63 21 -135 -10 -49 -21 -78 -27 -137 -28 -68 0 -84
4 -151 37 -146 72 -311 239 -506 513 -59 83 -171 228 -248 324 -77 95 -147
182 -156 193 -15 19 -16 18 -28 -24 -65 -218 -216 -462 -392 -635 -157 -152
-378 -289 -584 -360 l-80 -28 -3209 -3 c-3031 -2 -3208 -1 -3195 15 14 17
7804 8844 8491 9621 l338 382 -1444 0 c-1417 0 -1445 0 -1456 -19z"/>
</g>
</svg>
